Coordinates
version=1
nRows=6
nColumns=63
inDegrees=yes

Units are S.I. units (second, meters, Newtons, ...)
If the header above contains a line with 'inDegrees', this indicates whether rotational values are in degrees (yes) or radians (no).

endheader
time	pelvis_tilt	pelvis_list	pelvis_rotation	pelvis_tx	pelvis_ty	pelvis_tz	hip_flexion_r	hip_adduction_r	hip_rotation_r	knee_angle_r	knee_angle_r_beta	ankle_angle_r	subtalar_angle_r	mtp_angle_r	hip_flexion_l	hip_adduction_l	hip_rotation_l	knee_angle_l	knee_angle_l_beta	ankle_angle_l	subtalar_angle_l	mtp_angle_l	L5_S1_Flex_Ext	L5_S1_Lat_Bending	L5_S1_axial_rotation	L4_L5_Flex_Ext	L4_L5_Lat_Bending	L4_L5_axial_rotation	L3_L4_Flex_Ext	L3_L4_Lat_Bending	L3_L4_axial_rotation	L2_L3_Flex_Ext	L2_L3_Lat_Bending	L2_L3_axial_rotation	L1_L2_Flex_Ext	L1_L2_Lat_Bending	L1_L2_axial_rotation	L1_T12_Flex_Ext	L1_T12_Lat_Bending	L1_T12_axial_rotation	Abs_r3	Abs_r2	Abs_r1	Abs_t1	Abs_t2	neck_flexion	neck_bending	neck_rotation	arm_flex_r	arm_add_r	arm_rot_r	elbow_flex_r	pro_sup_r	wrist_flex_r	wrist_dev_r	arm_flex_l	arm_add_l	arm_rot_l	elbow_flex_l	pro_sup_l	wrist_flex_l	wrist_dev_l
      7.73809524	      1.02924273	      0.04032061	    103.26695881	      0.25540926	      0.43461070	      0.88424505	     -5.41115609	      2.49969045	     -0.35530280	      2.16862568	      0.03784966	     29.33679942	     -6.10627686	      0.00000000	     -2.29277630	     -0.47206233	     20.07503101	      1.38663429	      0.02420133	     28.37643978	    -11.38126135	      0.00000000	     -0.12394033	      0.21163099	     -0.60985586	     -0.23016959	      0.28146922	     -0.64797185	     -0.20362157	      0.51455960	     -0.64797185	     -0.14165140	      0.51455960	     -0.53362388	     -0.11509099	      0.43155792	     -0.49550789	     -0.07081951	      0.32781641	     -0.45739190	     -0.88529339	      2.39401211	     -3.39183534	      0.00000000	      0.00000000	     16.29860585	     14.61754141	     36.66920508	      7.91181270	    -18.36767801	     89.42128176	     21.17813268	     42.71566929	      6.36108682	     -1.07147673	      8.23126158	    -11.85374615	    149.74580452	      7.07696666	      5.10189317	    -14.29139957	    -16.37219202
      7.76190476	      1.01395526	      0.26563137	    103.78191252	      0.25478833	      0.43486795	      0.88390035	     -5.68489001	      2.59369715	     -1.09000591	      2.19345063	      0.03828294	     29.40098353	     -5.76144742	      0.00000000	     -2.42242059	     -0.51572597	     20.55973946	      1.42570048	      0.02488317	     28.49105475	    -11.47784749	      0.00000000	     -0.13441841	      0.20890182	     -0.63840829	     -0.24962843	      0.27783942	     -0.67830881	     -0.22083601	      0.50792388	     -0.67830881	     -0.15362680	      0.50792388	     -0.55860725	     -0.12482094	      0.42599258	     -0.51870673	     -0.07680668	      0.32358891	     -0.47880622	     -0.96013726	      2.36313912	     -3.55063538	      0.00000000	      0.00000000	     15.37356294	     14.56436320	     36.12912332	      7.73751610	    -18.09889347	     88.98249060	     20.75310192	     41.31050646	      6.86440062	     -0.35879630	      8.29257577	    -12.07802983	    146.72818178	      7.52656876	      3.53101892	    -14.24736440	    -17.13272716
      7.78571429	      1.03385432	      0.50918266	    104.13568835	      0.25441234	      0.43525235	      0.88358664	     -5.89481384	      2.69009382	     -2.34586141	      2.33785955	      0.04080335	     29.71546584	     -4.45309800	      0.00000000	     -2.59683207	     -0.59181014	     21.34952604	      1.46094208	      0.02549825	     28.39767098	    -12.26031132	      0.00000000	     -0.15944385	      0.20932328	     -0.66723014	     -0.29610318	      0.27839996	     -0.70893202	     -0.26195030	      0.50894862	     -0.70893202	     -0.18222838	      0.50894862	     -0.58382637	     -0.14805956	      0.42685203	     -0.54212448	     -0.09110622	      0.32424176	     -0.50042260	     -1.13889148	      2.36790680	     -3.71093384	      0.00000000	      0.00000000	     14.54205848	     14.59703412	     35.81510951	      7.76893073	    -17.93530656	     89.48309819	     20.69678397	     38.24319099	      6.70178103	      0.29300722	      8.40966293	    -12.53767852	    138.65772897	      8.79024213	      4.73802712	    -13.97048748	    -18.33617657
      7.80952381	      1.11065873	      0.64847857	    104.62206060	      0.25373632	      0.43563104	      0.88335719	     -6.01948185	      2.84929805	     -2.70366167	      2.38082778	      0.04155328	     29.60082914	     -4.62882128	      0.00000000	     -2.61374311	     -0.70507957	     21.67803845	      1.57729780	      0.02752904	     28.43823158	    -12.15164710	      0.00000000	     -0.17098579	      0.21881697	     -0.71791658	     -0.31753772	      0.29102656	     -0.76278637	     -0.28091256	      0.53203157	     -0.76278637	     -0.19541966	      0.53203157	     -0.62817701	     -0.15877741	      0.44621156	     -0.58330722	     -0.09770128	      0.33894748	     -0.53843744	     -1.22133442	      2.47530128	     -3.99283665	      0.00000000	      0.00000000	     13.92092630	     14.42921905	     35.53104006	      7.61886043	    -17.81440218	     89.11374015	     20.45364685	     37.75801353	      6.74581146	     -0.04079662	      8.54053132	    -12.35526913	    137.85000778	      8.71701181	      4.08236475	    -13.96755390	    -18.55042160
      7.83333333	      1.32255159	      0.65592207	    105.55784953	      0.25246716	      0.43551053	      0.88322220	     -6.13473543	      3.17317446	     -3.26009475	      2.11393727	      0.03689517	     29.53931344	     -4.91803018	      0.00000000	     -2.44807004	     -0.96852894	     22.48512396	      1.59752491	      0.02788207	     28.61088276	    -11.98090113	      0.00000000	     -0.15268760	      0.23957713	     -0.89334075	     -0.28355614	      0.31863759	     -0.94917454	     -0.25085046	      0.58250785	     -0.94917454	     -0.17450666	      0.58250785	     -0.78167315	     -0.14178570	      0.48854569	     -0.72583936	     -0.08724569	      0.37110498	     -0.67000556	     -1.09063225	      2.71014446	     -4.96849324	      0.00000000	      0.00000000	     14.00171536	     14.13329498	     35.30444090	      7.39113956	    -17.83543010	     88.41787271	     20.49621027	     36.68461358	      6.84645503	     -0.62178220	      8.54899107	    -12.24934608	    136.31241515	      9.00237916	      3.16710622	    -13.56757044	    -19.21014241
      7.85714286	      1.30891696	      0.81393295	    106.32563880	      0.25187614	      0.43574018	      0.88339753	     -6.36407344	      3.31257488	     -3.61032961	      1.96511632	      0.03429775	     29.48236597	     -5.40943150	      0.00000000	     -2.50201007	     -1.02878132	     24.16152963	      1.62291194	      0.02832516	     28.25223987	    -13.38308015	      0.00000000	     -0.15901226	      0.23170346	     -1.04504512	     -0.29530166	      0.30816561	     -1.11036044	     -0.26124123	      0.56336380	     -1.11036044	     -0.18173511	      0.56336380	     -0.91441448	     -0.14765878	      0.47248970	     -0.84909916	     -0.09085960	      0.35890866	     -0.78378384	     -1.13580864	      2.62107591	     -5.81222744	      0.00000000	      0.00000000	     14.03693660	     14.00754405	     35.24685085	      8.40627407	    -17.27610810	     96.04105651	     19.84468731	     27.78716505	      7.21474242	     -1.68942845	      8.53482083	    -12.40947201	    132.59370613	      9.50098485	      4.72112987	    -13.02002060	    -19.64744467
